<?xml version="1.0" encoding="UTF-8" standalone="no"?>
<svg width="494px" height="212px" viewBox="0 0 494 212" version="1.1" xmlns="http://www.w3.org/2000/svg" xmlns:xlink="http://www.w3.org/1999/xlink" xmlns:sketch="http://www.bohemiancoding.com/sketch/ns">
    <!-- Generator: Sketch 3.2 (9961) - http://www.bohemiancoding.com/sketch -->
    <title>HANG + Type something + Time to say goodbye + Line</title>
    <desc>Created with Sketch.</desc>
    <defs></defs>
    <g id="Page-1" stroke="none" stroke-width="1" fill="none" fill-rule="evenodd" sketch:type="MSPage">
        <g id="Artboard-1" sketch:type="MSArtboardGroup" transform="translate(-473.000000, -334.000000)">
            <g id="HANG-+-Type-something-+-Time-to-say-goodbye-+-Line" sketch:type="MSLayerGroup" transform="translate(496.000000, 356.000000)">
                <g id="HANG-+-Type-something" transform="translate(1.000000, 0.000000)" sketch:type="MSShapeGroup">
                    <path d="M40.8,66 L40.8,39.36 L15.96,39.36 L15.96,66 L0.57,66 L0.57,2.28 L15.96,2.28 L15.96,26.4 L40.8,26.4 L40.8,2.28 L56.19,2.28 L56.19,66 L40.8,66 Z M112.53,66 L107.58,53.49 L82.92,53.49 L78.24,66 L61.5,66 L88.23,2.28 L103.17,2.28 L129.63,66 L112.53,66 Z M95.43,19.29 L87.33,41.16 L103.35,41.16 L95.43,19.29 Z M175.44,66 L149.79,24.33 L149.52,24.33 L149.88,66 L134.94,66 L134.94,2.28 L152.49,2.28 L178.05,43.86 L178.32,43.86 L177.96,2.28 L192.9,2.28 L192.9,66 L175.44,66 Z M262.65,62.13 C259.529984,63.7500081 255.885021,65.0699949 251.715,66.09 C247.544979,67.1100051 243.000025,67.62 238.08,67.62 C232.979974,67.62 228.285021,66.8100081 223.995,65.19 C219.704979,63.5699919 216.015015,61.2900147 212.925,58.35 C209.834985,55.4099853 207.420009,51.8850206 205.68,47.775 C203.939991,43.6649795 203.07,39.0900252 203.07,34.05 C203.07,28.9499745 203.954991,24.3300207 205.725,20.19 C207.495009,16.0499793 209.939984,12.5250146 213.06,9.615 C216.180016,6.70498545 219.839979,4.4700078 224.04,2.91 C228.240021,1.3499922 232.769976,0.57 237.63,0.57 C242.670025,0.57 247.349978,1.33499235 251.67,2.865 C255.990022,4.39500765 259.499986,6.4499871 262.2,9.03 L252.48,20.1 C250.979992,18.3599913 249.000012,16.9350056 246.54,15.825 C244.079988,14.7149945 241.290016,14.16 238.17,14.16 C235.469986,14.16 232.980011,14.6549951 230.7,15.645 C228.419989,16.6350049 226.440008,18.0149912 224.76,19.785 C223.079992,21.5550089 221.775005,23.6549878 220.845,26.085 C219.914995,28.5150122 219.45,31.1699856 219.45,34.05 C219.45,36.9900147 219.869996,39.6899877 220.71,42.15 C221.550004,44.6100123 222.794992,46.7249911 224.445,48.495 C226.095008,50.2650089 228.134988,51.6449951 230.565,52.635 C232.995012,53.625005 235.769984,54.12 238.89,54.12 C240.690009,54.12 242.399992,53.9850013 244.02,53.715 C245.640008,53.4449987 247.139993,53.010003 248.52,52.41 L248.52,40.8 L236.37,40.8 L236.37,28.38 L262.65,28.38 L262.65,62.13 Z" id="HANG" fill="#263238"></path>
                    <path d="M318.77,66 L313.82,53.49 L289.16,53.49 L284.48,66 L267.74,66 L294.47,2.28 L309.41,2.28 L335.87,66 L318.77,66 Z M301.67,19.29 L293.57,41.16 L309.59,41.16 L301.67,19.29 Z M375.29,66 L361.52,40.71 L356.3,40.71 L356.3,66 L341.18,66 L341.18,2.28 L365.48,2.28 C368.540015,2.28 371.524985,2.59499685 374.435,3.225 C377.345015,3.85500315 379.954988,4.9199925 382.265,6.42 C384.575012,7.9200075 386.419993,9.8999877 387.8,12.36 C389.180007,14.8200123 389.87,17.8799817 389.87,21.54 C389.87,25.8600216 388.700012,29.4899853 386.36,32.43 C384.019988,35.3700147 380.780021,37.4699937 376.64,38.73 L393.29,66 L375.29,66 Z M374.66,21.81 C374.66,20.3099925 374.345003,19.0950046 373.715,18.165 C373.084997,17.2349954 372.275005,16.5150026 371.285,16.005 C370.294995,15.4949975 369.185006,15.1500009 367.955,14.97 C366.724994,14.7899991 365.540006,14.7 364.4,14.7 L356.21,14.7 L356.21,29.55 L363.5,29.55 C364.760006,29.55 366.049993,29.445001 367.37,29.235 C368.690007,29.0249989 369.889995,28.6500027 370.97,28.11 C372.050005,27.5699973 372.934997,26.7900051 373.625,25.77 C374.315003,24.7499949 374.66,23.4300081 374.66,21.81 L374.66,21.81 Z M427.04,15.42 L427.04,66 L411.65,66 L411.65,15.42 L393.65,15.42 L393.65,2.28 L445.04,2.28 L445.04,15.42 L427.04,15.42 Z" id="Type-something" fill="#B0120A"></path>
                </g>
                <path d="M75.5,98.5 L373.5,98.5" id="Line" stroke="#E0E0E0" stroke-linecap="square" sketch:type="MSShapeGroup"></path>
                <path d="M0.286,123.524 L0.286,121.586 L28.183,121.586 L28.183,123.524 L15.331,123.524 L15.331,158 L13.087,158 L13.087,123.524 L0.286,123.524 Z M31.396,126.839 L31.396,121.586 L33.334,121.586 L33.334,126.839 L31.396,126.839 Z M31.396,158 L31.396,131.786 L33.334,131.786 L33.334,158 L31.396,158 Z M39.556,131.786 L41.494,131.786 L41.494,137.141 L41.596,137.141 C41.800001,136.324996 42.1569975,135.551504 42.667,134.8205 C43.1770026,134.089496 43.7974963,133.452003 44.5285,132.908 C45.2595037,132.363997 46.0754955,131.939002 46.9765,131.633 C47.8775045,131.326998 48.8209951,131.174 49.807,131.174 C51.0650063,131.174 52.1529954,131.335498 53.071,131.6585 C53.9890046,131.981502 54.7709968,132.406497 55.417,132.9335 C56.0630032,133.460503 56.5729981,134.055497 56.947,134.7185 C57.3210019,135.381503 57.5759993,136.052997 57.712,136.733 L57.814,136.733 C58.5960039,134.896991 59.6414935,133.511505 60.9505,132.5765 C62.2595065,131.641495 63.9849893,131.174 66.127,131.174 C67.317006,131.174 68.413495,131.352498 69.4165,131.7095 C70.419505,132.066502 71.2864963,132.610496 72.0175,133.3415 C72.7485037,134.072504 73.317998,134.998994 73.726,136.121 C74.134002,137.243006 74.338,138.568992 74.338,140.099 L74.338,158 L72.4,158 L72.4,140.048 C72.4,138.381992 72.1450026,137.073005 71.635,136.121 C71.1249975,135.168995 70.5215035,134.446502 69.8245,133.9535 C69.1274965,133.460498 68.4305035,133.154501 67.7335,133.0355 C67.0364965,132.916499 66.5010019,132.857 66.127,132.857 C64.9369941,132.857 63.840505,133.060998 62.8375,133.469 C61.834495,133.877002 60.9675037,134.488996 60.2365,135.305 C59.5054963,136.121004 58.936002,137.132494 58.528,138.3395 C58.119998,139.546506 57.916,140.931992 57.916,142.496 L57.916,158 L55.978,158 L55.978,140.048 C55.978,138.415992 55.7315025,137.115505 55.2385,136.1465 C54.7454975,135.177495 54.1675033,134.455002 53.5045,133.979 C52.8414967,133.502998 52.1615035,133.197001 51.4645,133.061 C50.7674965,132.924999 50.215002,132.857 49.807,132.857 C48.8889954,132.857 47.9370049,133.043998 46.951,133.418 C45.9649951,133.792002 45.0640041,134.369996 44.248,135.152 C43.4319959,135.934004 42.7690026,136.936994 42.259,138.161 C41.7489975,139.385006 41.494,140.829992 41.494,142.496 L41.494,158 L39.556,158 L39.556,131.786 Z M80.866,145.148 L80.866,145.454 C80.866,146.984008 81.069998,148.445993 81.478,149.84 C81.886002,151.234007 82.489496,152.457995 83.2885,153.512 C84.087504,154.566005 85.090494,155.398997 86.2975,156.011 C87.504506,156.623003 88.906992,156.929 90.505,156.929 C93.1230131,156.929 95.1969924,156.240507 96.727,154.8635 C98.2570077,153.486493 99.3109971,151.574012 99.889,149.126 L101.827,149.126 C101.248997,152.186015 99.9995096,154.531992 98.0785,156.164 C96.1574904,157.796008 93.6160158,158.612 90.454,158.612 C88.5159903,158.612 86.8245072,158.263503 85.3795,157.5665 C83.9344928,156.869497 82.7275048,155.917506 81.7585,154.7105 C80.7894952,153.503494 80.0670024,152.075508 79.591,150.4265 C79.1149976,148.777492 78.877,147.00101 78.877,145.097 C78.877,143.260991 79.1234975,141.501508 79.6165,139.8185 C80.1095025,138.135492 80.8489951,136.656506 81.835,135.3815 C82.8210049,134.106494 84.0534926,133.086504 85.5325,132.3215 C87.0115074,131.556496 88.75399,131.174 90.76,131.174 C92.5960092,131.174 94.2194929,131.513997 95.6305,132.194 C97.0415071,132.874003 98.2229952,133.800494 99.175,134.9735 C100.127005,136.146506 100.849498,137.506492 101.3425,139.0535 C101.835502,140.600508 102.082,142.257991 102.082,144.026 C102.082,144.196001 102.0735,144.391499 102.0565,144.6125 C102.0395,144.833501 102.031,145.011999 102.031,145.148 L80.866,145.148 Z M100.093,143.465 C100.025,142.036993 99.787002,140.685506 99.379,139.4105 C98.970998,138.135494 98.367504,137.013505 97.5685,136.0445 C96.769496,135.075495 95.8005057,134.302003 94.6615,133.724 C93.5224943,133.145997 92.2220073,132.857 90.76,132.857 C89.1959922,132.857 87.819006,133.154497 86.629,133.7495 C85.4389941,134.344503 84.4360041,135.126495 83.62,136.0955 C82.8039959,137.064505 82.1750022,138.194994 81.733,139.487 C81.2909978,140.779006 81.0190005,142.104993 80.917,143.465 L100.093,143.465 Z M130.387,133.469 L124.675,133.469 L124.675,151.778 C124.675,152.832005 124.793999,153.664997 125.032,154.277 C125.270001,154.889003 125.635498,155.356498 126.1285,155.6795 C126.621502,156.002502 127.216497,156.198 127.9135,156.266 C128.610503,156.334 129.417995,156.351 130.336,156.317 L130.336,158 C129.349995,158.068 128.389505,158.0595 127.4545,157.9745 C126.519495,157.8895 125.695004,157.634502 124.981,157.2095 C124.266996,156.784498 123.697502,156.147004 123.2725,155.297 C122.847498,154.446996 122.669,153.274007 122.737,151.778 L122.737,133.469 L117.892,133.469 L117.892,131.786 L122.737,131.786 L122.737,123.626 L124.675,123.626 L124.675,131.786 L130.387,131.786 L130.387,133.469 Z M132.019,144.893 C132.019,143.022991 132.282497,141.263508 132.8095,139.6145 C133.336503,137.965492 134.109995,136.512006 135.13,135.254 C136.150005,133.995994 137.407993,133.001504 138.904,132.2705 C140.400007,131.539496 142.11699,131.174 144.055,131.174 C145.99301,131.174 147.709993,131.539496 149.206,132.2705 C150.702007,133.001504 151.959995,133.995994 152.98,135.254 C154.000005,136.512006 154.773497,137.965492 155.3005,139.6145 C155.827503,141.263508 156.091,143.022991 156.091,144.893 C156.091,146.763009 155.827503,148.530992 155.3005,150.197 C154.773497,151.863008 154.000005,153.316494 152.98,154.5575 C151.959995,155.798506 150.702007,156.784496 149.206,157.5155 C147.709993,158.246504 145.99301,158.612 144.055,158.612 C142.11699,158.612 140.400007,158.246504 138.904,157.5155 C137.407993,156.784496 136.150005,155.798506 135.13,154.5575 C134.109995,153.316494 133.336503,151.863008 132.8095,150.197 C132.282497,148.530992 132.019,146.763009 132.019,144.893 L132.019,144.893 Z M133.957,144.893 C133.957,146.457008 134.177998,147.961493 134.62,149.4065 C135.062002,150.851507 135.707996,152.134994 136.558,153.257 C137.408004,154.379006 138.461994,155.271497 139.72,155.9345 C140.978006,156.597503 142.422992,156.929 144.055,156.929 C145.687008,156.929 147.131994,156.597503 148.39,155.9345 C149.648006,155.271497 150.701996,154.379006 151.552,153.257 C152.402004,152.134994 153.047998,150.851507 153.49,149.4065 C153.932002,147.961493 154.153,146.457008 154.153,144.893 C154.153,143.328992 153.932002,141.824507 153.49,140.3795 C153.047998,138.934493 152.402004,137.651006 151.552,136.529 C150.701996,135.406994 149.648006,134.514503 148.39,133.8515 C147.131994,133.188497 145.687008,132.857 144.055,132.857 C142.422992,132.857 140.978006,133.188497 139.72,133.8515 C138.461994,134.514503 137.408004,135.406994 136.558,136.529 C135.707996,137.651006 135.062002,138.934493 134.62,140.3795 C134.177998,141.824507 133.957,143.328992 133.957,144.893 L133.957,144.893 Z M175.726,149.279 C175.794,150.503006 176.065998,151.582495 176.542,152.5175 C177.018002,153.452505 177.638496,154.251497 178.4035,154.9145 C179.168504,155.577503 180.060995,156.078998 181.081,156.419 C182.101005,156.759002 183.205994,156.929 184.396,156.929 C185.246004,156.929 186.155495,156.852501 187.1245,156.6995 C188.093505,156.546499 188.994496,156.266002 189.8275,155.858 C190.660504,155.449998 191.348997,154.880504 191.893,154.1495 C192.437003,153.418496 192.709,152.492006 192.709,151.37 C192.709,149.907993 192.267004,148.803004 191.383,148.055 C190.498996,147.306996 189.385507,146.729002 188.0425,146.321 C186.699493,145.912998 185.254508,145.581501 183.7075,145.3265 C182.160492,145.071499 180.715507,144.689003 179.3725,144.179 C178.029493,143.668997 176.916004,142.946505 176.032,142.0115 C175.147996,141.076495 174.706,139.708009 174.706,137.906 C174.706,136.613994 174.994997,135.534504 175.573,134.6675 C176.151003,133.800496 176.890495,133.112003 177.7915,132.602 C178.692505,132.091997 179.703994,131.726501 180.826,131.5055 C181.948006,131.284499 183.069994,131.174 184.192,131.174 C185.552007,131.174 186.826994,131.326998 188.017,131.633 C189.207006,131.939002 190.235496,132.431997 191.1025,133.112 C191.969504,133.792003 192.649498,134.658995 193.1425,135.713 C193.635502,136.767005 193.882,138.041993 193.882,139.538 L191.944,139.538 C191.944,138.347994 191.748502,137.328004 191.3575,136.478 C190.966498,135.627996 190.422503,134.939503 189.7255,134.4125 C189.028497,133.885497 188.204005,133.494501 187.252,133.2395 C186.299995,132.984499 185.280005,132.857 184.192,132.857 C183.307996,132.857 182.415505,132.941999 181.5145,133.112 C180.613495,133.282001 179.806004,133.570998 179.092,133.979 C178.377996,134.387002 177.791502,134.913997 177.3325,135.56 C176.873498,136.206003 176.644,136.987995 176.644,137.906 C176.644,138.960005 176.898997,139.809997 177.409,140.456 C177.919003,141.102003 178.590496,141.620498 179.4235,142.0115 C180.256504,142.402502 181.191495,142.716999 182.2285,142.955 C183.265505,143.193001 184.310995,143.430999 185.365,143.669 C186.657006,143.907001 187.872494,144.187498 189.0115,144.5105 C190.150506,144.833502 191.136496,145.275497 191.9695,145.8365 C192.802504,146.397503 193.456998,147.119996 193.933,148.004 C194.409002,148.888004 194.647,150.009993 194.647,151.37 C194.647,152.798007 194.324003,153.970995 193.678,154.889 C193.031997,155.807005 192.216005,156.546497 191.23,157.1075 C190.243995,157.668503 189.147506,158.059499 187.9405,158.2805 C186.733494,158.501501 185.552006,158.612 184.396,158.612 C182.899993,158.612 181.514506,158.416502 180.2395,158.0255 C178.964494,157.634498 177.851005,157.039504 176.899,156.2405 C175.946995,155.441496 175.199003,154.464006 174.655,153.308 C174.110997,152.151994 173.822,150.809008 173.788,149.279 L175.726,149.279 Z M216.73,152.798 L216.628,152.798 C216.321998,153.580004 215.880003,154.319497 215.302,155.0165 C214.723997,155.713503 214.018504,156.333997 213.1855,156.878 C212.352496,157.422003 211.409005,157.846998 210.355,158.153 C209.300995,158.459002 208.145006,158.612 206.887,158.612 C204.098986,158.612 201.940008,158.008506 200.41,156.8015 C198.879992,155.594494 198.115,153.733013 198.115,151.217 C198.115,149.686992 198.420997,148.437505 199.033,147.4685 C199.645003,146.499495 200.418495,145.734503 201.3535,145.1735 C202.288505,144.612497 203.325494,144.213001 204.4645,143.975 C205.603506,143.736999 206.699995,143.567001 207.754,143.465 L210.763,143.21 C212.157007,143.107999 213.253496,142.946501 214.0525,142.7255 C214.851504,142.504499 215.454998,142.198502 215.863,141.8075 C216.271002,141.416498 216.525999,140.915003 216.628,140.303 C216.730001,139.690997 216.781,138.926005 216.781,138.008 C216.781,137.293996 216.645001,136.631003 216.373,136.019 C216.100999,135.406997 215.676003,134.863002 215.098,134.387 C214.519997,133.910998 213.772005,133.537001 212.854,133.265 C211.935995,132.992999 210.814007,132.857 209.488,132.857 C207.141988,132.857 205.246507,133.434994 203.8015,134.591 C202.356493,135.747006 201.566001,137.497988 201.43,139.844 L199.492,139.844 C199.628001,136.953986 200.554491,134.786507 202.2715,133.3415 C203.988509,131.896493 206.427984,131.174 209.59,131.174 C212.752016,131.174 215.055493,131.794494 216.5005,133.0355 C217.945507,134.276506 218.668,135.89999 218.668,137.906 L218.668,153.155 C218.668,153.529002 218.6765,153.902998 218.6935,154.277 C218.7105,154.651002 218.769999,154.990998 218.872,155.297 C218.974001,155.603002 219.143999,155.849499 219.382,156.0365 C219.620001,156.223501 219.959998,156.317 220.402,156.317 C220.742002,156.317 221.217997,156.266001 221.83,156.164 L221.83,157.796 C221.319997,157.932001 220.793003,158 220.249,158 C219.466996,158 218.846502,157.898001 218.3875,157.694 C217.928498,157.489999 217.580001,157.218002 217.342,156.878 C217.103999,156.537998 216.9425,156.138502 216.8575,155.6795 C216.7725,155.220498 216.73,154.719003 216.73,154.175 L216.73,152.798 Z M216.73,143.108 C216.253998,143.686003 215.531505,144.076999 214.5625,144.281 C213.593495,144.485001 212.514006,144.637999 211.324,144.74 L208.06,145.046 C207.107995,145.148001 206.156005,145.292499 205.204,145.4795 C204.251995,145.666501 203.393504,145.980998 202.6285,146.423 C201.863496,146.865002 201.243002,147.468496 200.767,148.2335 C200.290998,148.998504 200.053,149.992994 200.053,151.217 C200.053,153.15501 200.664994,154.591495 201.889,155.5265 C203.113006,156.461505 204.795989,156.929 206.938,156.929 C209.148011,156.929 210.898994,156.529504 212.191,155.7305 C213.483006,154.931496 214.468997,154.013505 215.149,152.9765 C215.829003,151.939495 216.262499,150.936505 216.4495,149.9675 C216.636501,148.998495 216.73,148.344002 216.73,148.004 L216.73,143.108 Z M221.677,131.786 L223.972,131.786 L233.713,155.705 L242.689,131.786 L244.882,131.786 L233.662,160.805 C233.117997,162.097006 232.616502,163.210495 232.1575,164.1455 C231.698498,165.080505 231.180003,165.768998 230.602,166.211 C229.921997,166.755003 229.114505,167.086499 228.1795,167.2055 C227.244495,167.324501 226.012008,167.384 224.482,167.384 L224.482,165.701 C225.876007,165.701 226.963996,165.590501 227.746,165.3695 C228.528004,165.148499 229.258997,164.698003 229.939,164.018 C230.313002,163.643998 230.703998,162.955505 231.112,161.9525 C231.520002,160.949495 232.029997,159.581009 232.642,157.847 L221.677,131.786 Z M283.336,131.786 L283.336,156.623 C283.336,158.085007 283.166002,159.504493 282.826,160.8815 C282.485998,162.258507 281.899504,163.473995 281.0665,164.528 C280.233496,165.582005 279.086007,166.423497 277.624,167.0525 C276.161993,167.681503 274.309011,167.996 272.065,167.996 C270.670993,167.996 269.362006,167.851501 268.138,167.5625 C266.913994,167.273499 265.843005,166.814503 264.925,166.1855 C264.006995,165.556497 263.267503,164.723505 262.7065,163.6865 C262.145497,162.649495 261.831,161.366008 261.763,159.836 L263.701,159.836 C263.803001,160.992006 264.091998,161.977996 264.568,162.794 C265.044002,163.610004 265.664496,164.281497 266.4295,164.8085 C267.194504,165.335503 268.052995,165.717999 269.005,165.956 C269.957005,166.194001 270.976995,166.313 272.065,166.313 C273.867009,166.313 275.371494,166.041003 276.5785,165.497 C277.785506,164.952997 278.745996,164.247504 279.46,163.3805 C280.174004,162.513496 280.675499,161.527506 280.9645,160.4225 C281.253501,159.317494 281.398,158.204006 281.398,157.082 L281.398,151.064 L281.296,151.064 C280.377995,153.00201 279.128508,154.480995 277.5475,155.501 C275.966492,156.521005 274.054011,157.031 271.81,157.031 C269.87199,157.031 268.197507,156.699503 266.7865,156.0365 C265.375493,155.373497 264.202505,154.455506 263.2675,153.2825 C262.332495,152.109494 261.635502,150.741008 261.1765,149.177 C260.717498,147.612992 260.488,145.913009 260.488,144.077 C260.488,142.342991 260.734498,140.694008 261.2275,139.13 C261.720502,137.565992 262.442995,136.197506 263.395,135.0245 C264.347005,133.851494 265.528493,132.916503 266.9395,132.2195 C268.350507,131.522497 269.973991,131.174 271.81,131.174 C273.88401,131.174 275.796491,131.700995 277.5475,132.755 C279.298509,133.809005 280.547996,135.30499 281.296,137.243 L281.398,137.243 L281.398,131.786 L283.336,131.786 Z M271.81,132.857 C270.211992,132.857 268.826506,133.179997 267.6535,133.826 C266.480494,134.472003 265.511504,135.321995 264.7465,136.376 C263.981496,137.430005 263.403502,138.628493 263.0125,139.9715 C262.621498,141.314507 262.426,142.682993 262.426,144.077 C262.426,145.607008 262.621498,147.060493 263.0125,148.4375 C263.403502,149.814507 263.998496,151.012995 264.7975,152.033 C265.596504,153.053005 266.582494,153.860497 267.7555,154.4555 C268.928506,155.050503 270.279992,155.348 271.81,155.348 C273.408008,155.348 274.801994,155.042003 275.992,154.43 C277.182006,153.817997 278.176496,152.985005 278.9755,151.931 C279.774504,150.876995 280.369498,149.678507 280.7605,148.3355 C281.151502,146.992493 281.347,145.573007 281.347,144.077 C281.347,142.614993 281.151502,141.204007 280.7605,139.844 C280.369498,138.483993 279.774504,137.285505 278.9755,136.2485 C278.176496,135.211495 277.182006,134.387003 275.992,133.775 C274.801994,133.162997 273.408008,132.857 271.81,132.857 L271.81,132.857 Z M287.824,144.893 C287.824,143.022991 288.087497,141.263508 288.6145,139.6145 C289.141503,137.965492 289.914995,136.512006 290.935,135.254 C291.955005,133.995994 293.212993,133.001504 294.709,132.2705 C296.205007,131.539496 297.92199,131.174 299.86,131.174 C301.79801,131.174 303.514993,131.539496 305.011,132.2705 C306.507007,133.001504 307.764995,133.995994 308.785,135.254 C309.805005,136.512006 310.578497,137.965492 311.1055,139.6145 C311.632503,141.263508 311.896,143.022991 311.896,144.893 C311.896,146.763009 311.632503,148.530992 311.1055,150.197 C310.578497,151.863008 309.805005,153.316494 308.785,154.5575 C307.764995,155.798506 306.507007,156.784496 305.011,157.5155 C303.514993,158.246504 301.79801,158.612 299.86,158.612 C297.92199,158.612 296.205007,158.246504 294.709,157.5155 C293.212993,156.784496 291.955005,155.798506 290.935,154.5575 C289.914995,153.316494 289.141503,151.863008 288.6145,150.197 C288.087497,148.530992 287.824,146.763009 287.824,144.893 L287.824,144.893 Z M289.762,144.893 C289.762,146.457008 289.982998,147.961493 290.425,149.4065 C290.867002,150.851507 291.512996,152.134994 292.363,153.257 C293.213004,154.379006 294.266994,155.271497 295.525,155.9345 C296.783006,156.597503 298.227992,156.929 299.86,156.929 C301.492008,156.929 302.936994,156.597503 304.195,155.9345 C305.453006,155.271497 306.506996,154.379006 307.357,153.257 C308.207004,152.134994 308.852998,150.851507 309.295,149.4065 C309.737002,147.961493 309.958,146.457008 309.958,144.893 C309.958,143.328992 309.737002,141.824507 309.295,140.3795 C308.852998,138.934493 308.207004,137.651006 307.357,136.529 C306.506996,135.406994 305.453006,134.514503 304.195,133.8515 C302.936994,133.188497 301.492008,132.857 299.86,132.857 C298.227992,132.857 296.783006,133.188497 295.525,133.8515 C294.266994,134.514503 293.213004,135.406994 292.363,136.529 C291.512996,137.651006 290.867002,138.934493 290.425,140.3795 C289.982998,141.824507 289.762,143.328992 289.762,144.893 L289.762,144.893 Z M315.211,144.893 C315.211,143.022991 315.474497,141.263508 316.0015,139.6145 C316.528503,137.965492 317.301995,136.512006 318.322,135.254 C319.342005,133.995994 320.599993,133.001504 322.096,132.2705 C323.592007,131.539496 325.30899,131.174 327.247,131.174 C329.18501,131.174 330.901993,131.539496 332.398,132.2705 C333.894007,133.001504 335.151995,133.995994 336.172,135.254 C337.192005,136.512006 337.965497,137.965492 338.4925,139.6145 C339.019503,141.263508 339.283,143.022991 339.283,144.893 C339.283,146.763009 339.019503,148.530992 338.4925,150.197 C337.965497,151.863008 337.192005,153.316494 336.172,154.5575 C335.151995,155.798506 333.894007,156.784496 332.398,157.5155 C330.901993,158.246504 329.18501,158.612 327.247,158.612 C325.30899,158.612 323.592007,158.246504 322.096,157.5155 C320.599993,156.784496 319.342005,155.798506 318.322,154.5575 C317.301995,153.316494 316.528503,151.863008 316.0015,150.197 C315.474497,148.530992 315.211,146.763009 315.211,144.893 L315.211,144.893 Z M317.149,144.893 C317.149,146.457008 317.369998,147.961493 317.812,149.4065 C318.254002,150.851507 318.899996,152.134994 319.75,153.257 C320.600004,154.379006 321.653994,155.271497 322.912,155.9345 C324.170006,156.597503 325.614992,156.929 327.247,156.929 C328.879008,156.929 330.323994,156.597503 331.582,155.9345 C332.840006,155.271497 333.893996,154.379006 334.744,153.257 C335.594004,152.134994 336.239998,150.851507 336.682,149.4065 C337.124002,147.961493 337.345,146.457008 337.345,144.893 C337.345,143.328992 337.124002,141.824507 336.682,140.3795 C336.239998,138.934493 335.594004,137.651006 334.744,136.529 C333.893996,135.406994 332.840006,134.514503 331.582,133.8515 C330.323994,133.188497 328.879008,132.857 327.247,132.857 C325.614992,132.857 324.170006,133.188497 322.912,133.8515 C321.653994,134.514503 320.600004,135.406994 319.75,136.529 C318.899996,137.651006 318.254002,138.934493 317.812,140.3795 C317.369998,141.824507 317.149,143.328992 317.149,144.893 L317.149,144.893 Z M364.069,152.39 L363.967,152.39 C362.878995,154.46401 361.519008,156.019495 359.887,157.0565 C358.254992,158.093505 356.266012,158.612 353.92,158.612 C351.94799,158.612 350.248007,158.238004 348.82,157.49 C347.391993,156.741996 346.219005,155.739006 345.301,154.481 C344.382995,153.222994 343.703002,151.769508 343.261,150.1205 C342.818998,148.471492 342.598,146.746009 342.598,144.944 C342.598,143.00599 342.835998,141.195508 343.312,139.5125 C343.788002,137.829492 344.510495,136.376006 345.4795,135.152 C346.448505,133.927994 347.663993,132.959004 349.126,132.245 C350.588007,131.530996 352.30499,131.174 354.277,131.174 C355.331005,131.174 356.367995,131.318499 357.388,131.6075 C358.408005,131.896501 359.351496,132.312997 360.2185,132.857 C361.085504,133.401003 361.841997,134.080996 362.488,134.897 C363.134003,135.713004 363.626998,136.630995 363.967,137.651 L364.069,137.651 L364.069,121.586 L366.007,121.586 L366.007,158 L364.069,158 L364.069,152.39 Z M354.328,156.929 C355.994008,156.929 357.430494,156.589003 358.6375,155.909 C359.844506,155.228997 360.847496,154.328006 361.6465,153.206 C362.445504,152.083994 363.040498,150.800507 363.4315,149.3555 C363.822502,147.910493 364.018,146.440007 364.018,144.944 C364.018,143.413992 363.822502,141.926507 363.4315,140.4815 C363.040498,139.036493 362.454004,137.744506 361.672,136.6055 C360.889996,135.466494 359.878506,134.557003 358.6375,133.877 C357.396494,133.196997 355.943008,132.857 354.277,132.857 C352.542991,132.857 351.064006,133.188497 349.84,133.8515 C348.615994,134.514503 347.604504,135.406994 346.8055,136.529 C346.006496,137.651006 345.428502,138.942993 345.0715,140.405 C344.714498,141.867007 344.536,143.379992 344.536,144.944 C344.536,146.474008 344.731498,147.961493 345.1225,149.4065 C345.513502,150.851507 346.108496,152.134994 346.9075,153.257 C347.706504,154.379006 348.717994,155.271497 349.942,155.9345 C351.166006,156.597503 352.627992,156.929 354.328,156.929 L354.328,156.929 Z M372.637,121.586 L374.575,121.586 L374.575,137.345 L374.677,137.345 C375.051002,136.324995 375.577997,135.432504 376.258,134.6675 C376.938003,133.902496 377.719996,133.256503 378.604,132.7295 C379.488004,132.202497 380.439995,131.811501 381.46,131.5565 C382.480005,131.301499 383.533995,131.174 384.622,131.174 C386.56001,131.174 388.234493,131.513997 389.6455,132.194 C391.056507,132.874003 392.237995,133.808994 393.19,134.999 C394.142005,136.189006 394.847498,137.574492 395.3065,139.1555 C395.765502,140.736508 395.995,142.444991 395.995,144.281 C395.995,147.409016 395.570004,149.916491 394.72,151.8035 C393.869996,153.690509 392.850006,155.135495 391.66,156.1385 C390.469994,157.141505 389.229006,157.804498 387.937,158.1275 C386.644994,158.450502 385.540005,158.612 384.622,158.612 C382.887991,158.612 381.417506,158.340003 380.2105,157.796 C379.003494,157.251997 378.009004,156.614504 377.227,155.8835 C376.444996,155.152496 375.850002,154.430004 375.442,153.716 C375.033998,153.001996 374.779001,152.475002 374.677,152.135 L374.575,152.135 L374.575,158 L372.637,158 L372.637,121.586 Z M384.622,156.929 C386.356009,156.929 387.817994,156.555004 389.008,155.807 C390.198006,155.058996 391.166996,154.081506 391.915,152.8745 C392.663004,151.667494 393.206998,150.307508 393.547,148.7945 C393.887002,147.281492 394.057,145.777007 394.057,144.281 C394.057,142.818993 393.861502,141.408007 393.4705,140.048 C393.079498,138.687993 392.484504,137.472505 391.6855,136.4015 C390.886496,135.330495 389.900506,134.472003 388.7275,133.826 C387.554494,133.179997 386.186008,132.857 384.622,132.857 C382.921992,132.857 381.443006,133.145997 380.185,133.724 C378.926994,134.302003 377.890004,135.100995 377.074,136.121 C376.257996,137.141005 375.646002,138.347993 375.238,139.742 C374.829998,141.136007 374.626,142.648992 374.626,144.281 C374.626,145.879008 374.812998,147.442992 375.187,148.973 C375.561002,150.503008 376.147496,151.854494 376.9465,153.0275 C377.745504,154.200506 378.773994,155.143996 380.032,155.858 C381.290006,156.572004 382.819991,156.929 384.622,156.929 L384.622,156.929 Z M397.372,131.786 L399.667,131.786 L409.408,155.705 L418.384,131.786 L420.577,131.786 L409.357,160.805 C408.812997,162.097006 408.311502,163.210495 407.8525,164.1455 C407.393498,165.080505 406.875003,165.768998 406.297,166.211 C405.616997,166.755003 404.809505,167.086499 403.8745,167.2055 C402.939495,167.324501 401.707008,167.384 400.177,167.384 L400.177,165.701 C401.571007,165.701 402.658996,165.590501 403.441,165.3695 C404.223004,165.148499 404.953997,164.698003 405.634,164.018 C406.008002,163.643998 406.398998,162.955505 406.807,161.9525 C407.215002,160.949495 407.724997,159.581009 408.337,157.847 L397.372,131.786 Z M423.943,145.148 L423.943,145.454 C423.943,146.984008 424.146998,148.445993 424.555,149.84 C424.963002,151.234007 425.566496,152.457995 426.3655,153.512 C427.164504,154.566005 428.167494,155.398997 429.3745,156.011 C430.581506,156.623003 431.983992,156.929 433.582,156.929 C436.200013,156.929 438.273992,156.240507 439.804,154.8635 C441.334008,153.486493 442.387997,151.574012 442.966,149.126 L444.904,149.126 C444.325997,152.186015 443.07651,154.531992 441.1555,156.164 C439.23449,157.796008 436.693016,158.612 433.531,158.612 C431.59299,158.612 429.901507,158.263503 428.4565,157.5665 C427.011493,156.869497 425.804505,155.917506 424.8355,154.7105 C423.866495,153.503494 423.144002,152.075508 422.668,150.4265 C422.191998,148.777492 421.954,147.00101 421.954,145.097 C421.954,143.260991 422.200498,141.501508 422.6935,139.8185 C423.186502,138.135492 423.925995,136.656506 424.912,135.3815 C425.898005,134.106494 427.130493,133.086504 428.6095,132.3215 C430.088507,131.556496 431.83099,131.174 433.837,131.174 C435.673009,131.174 437.296493,131.513997 438.7075,132.194 C440.118507,132.874003 441.299995,133.800494 442.252,134.9735 C443.204005,136.146506 443.926498,137.506492 444.4195,139.0535 C444.912502,140.600508 445.159,142.257991 445.159,144.026 C445.159,144.196001 445.1505,144.391499 445.1335,144.6125 C445.1165,144.833501 445.108,145.011999 445.108,145.148 L423.943,145.148 Z M443.17,143.465 C443.102,142.036993 442.864002,140.685506 442.456,139.4105 C442.047998,138.135494 441.444504,137.013505 440.6455,136.0445 C439.846496,135.075495 438.877506,134.302003 437.7385,133.724 C436.599494,133.145997 435.299007,132.857 433.837,132.857 C432.272992,132.857 430.896006,133.154497 429.706,133.7495 C428.515994,134.344503 427.513004,135.126495 426.697,136.0955 C425.880996,137.064505 425.252002,138.194994 424.81,139.487 C424.367998,140.779006 424.096001,142.104993 423.994,143.465 L443.17,143.465 Z" id="Time-to-say-goodbye" fill="#5495B5" sketch:type="MSShapeGroup"></path>
            </g>
        </g>
    </g>
</svg>